<svg viewBox="0 0 64 64" xml:space="preserve" xmlns="http://www.w3.org/2000/svg"><circle cx="32" cy="32" fill="#0f0c0c" r="32" class="fill-c75c5c"></circle><path d="M28.125 58.062S12.063 55.685 12.063 42s21.003-14.991 16.355-31.969c0 0 15.726 4.921 11.887 20.245 0 0 2.079-1.328 3.671-3.913 0 0 7.963 6.151 7.963 15.511S40.9 58.12 35.671 58.056c0 0 5.642-7.618.509-12.529C28.894 38.555 32 34.078 32 34.078s-17.754 8.685-3.875 23.984z" fill="#0e0f0f" opacity=".2" class="fill-231f20"></path><path d="M28.125 56.062S12.063 53.685 12.063 40 33.065 25.009 28.417 8.031c0 0 15.726 4.921 11.887 20.245 0 0 2.079-1.328 3.671-3.913 0 0 7.963 6.151 7.963 15.511S40.9 56.12 35.671 56.056c0 0 5.642-7.618.509-12.529C28.894 36.555 32 32.078 32 32.078s-17.754 8.685-3.875 23.984z" fill="#1f53d9" class="fill-f5cf87"></path></svg>